{"accessors":[{"bufferView":2,"componentType":5126,"count":4370,"max":[49.75981903076172,51.7832145690918,49.75981903076172],"min":[-49.75981903076172,-83.57927703857422,-49.75981903076172],"type":"VEC3"},{"bufferView":2,"byteOffset":52440,"componentType":5126,"count":4370,"max":[1,1,1],"min":[-1,-1,-1],"type":"VEC3"},{"bufferView":3,"componentType":5126,"count":4370,"max":[1,0.4889754056930542,1,1],"min":[-1,-0.48897552490234375,-1,-1],"type":"VEC4"},{"bufferView":1,"componentType":5126,"count":4370,"max":[1,1],"min":[-6.702616239806503e-10,0],"type":"VEC2"},{"bufferView":1,"byteOffset":34960,"componentType":5126,"count":4370,"max":[0,1],"min":[0,1],"type":"VEC2"},{"bufferView":0,"componentType":5125,"count":16512,"max":[4369],"min":[0],"type":"SCALAR"},{"bufferView":2,"byteOffset":104880,"componentType":5126,"count":134,"max":[6,50,6],"min":[-6,-50,-6],"type":"VEC3"},{"bufferView":2,"byteOffset":106488,"componentType":5126,"count":134,"max":[0.9999999403953552,1,0.9999999403953552],"min":[-1,-1,-1],"type":"VEC3"},{"bufferView":3,"byteOffset":69920,"componentType":5126,"count":134,"max":[1,1.224425560941711e-10,1,1],"min":[-1,-1.2244266711647356e-10,-1,-1],"type":"VEC4"},{"bufferView":1,"byteOffset":69920,"componentType":5126,"count":134,"max":[1,1],"min":[0,0],"type":"VEC2"},{"bufferView":1,"byteOffset":70992,"componentType":5126,"count":134,"max":[0,1],"min":[0,1],"type":"VEC2"},{"bufferView":0,"byteOffset":66048,"componentType":5125,"count":384,"max":[133],"min":[0],"type":"SCALAR"},{"bufferView":2,"byteOffset":108096,"componentType":5126,"count":2412,"max":[15.000004768371582,15.287845611572266,5.26370906829834],"min":[-14.99999713897705,-134.712158203125,-4.999671936035156],"type":"VEC3"},{"bufferView":2,"byteOffset":137040,"componentType":5126,"count":2412,"max":[1,1,1],"min":[-1,-1,-1],"type":"VEC3"},{"bufferView":3,"byteOffset":72064,"componentType":5126,"count":2412,"max":[1,0.9860121607780457,1,1],"min":[-1,-0.9998339414596558,-1,1],"type":"VEC4"},{"bufferView":1,"byteOffset":72064,"componentType":5126,"count":2412,"max":[1,1],"min":[0,0],"type":"VEC2"},{"bufferView":1,"byteOffset":91360,"componentType":5126,"count":2412,"max":[0,1],"min":[0,1],"type":"VEC2"},{"bufferView":0,"byteOffset":67584,"componentType":5125,"count":10152,"max":[2411],"min":[0],"type":"SCALAR"},{"bufferView":2,"byteOffset":165984,"componentType":5126,"count":134,"max":[6,50,6],"min":[-6,-50,-6],"type":"VEC3"},{"bufferView":2,"byteOffset":167592,"componentType":5126,"count":134,"max":[0.9999999403953552,1,0.9999999403953552],"min":[-1,-1,-1],"type":"VEC3"},{"bufferView":3,"byteOffset":110656,"componentType":5126,"count":134,"max":[1,1.224425560941711e-10,1,1],"min":[-1,-1.2244266711647356e-10,-1,-1],"type":"VEC4"},{"bufferView":1,"byteOffset":110656,"componentType":5126,"count":134,"max":[1,1],"min":[0,0],"type":"VEC2"},{"bufferView":1,"byteOffset":111728,"componentType":5126,"count":134,"max":[0,1],"min":[0,1],"type":"VEC2"},{"bufferView":0,"byteOffset":108192,"componentType":5125,"count":384,"max":[133],"min":[0],"type":"SCALAR"},{"bufferView":2,"byteOffset":169200,"componentType":5126,"count":1664,"max":[71.78697204589844,15.200180053710938,70.78577423095703],"min":[-71.78227996826172,-18.611425399780273,-70.78473663330078],"type":"VEC3"},{"bufferView":2,"byteOffset":189168,"componentType":5126,"count":1664,"max":[0.9998793005943298,0.999999463558197,0.9999969005584717],"min":[-0.9998733997344971,-1,-0.999997079372406],"type":"VEC3"},{"bufferView":3,"byteOffset":112800,"componentType":5126,"count":1664,"max":[1,0.023114042356610298,0.9998734593391418,1],"min":[-0.9999971985816956,-0.023106787353754044,-0.9998793005943298,-1],"type":"VEC4"},{"bufferView":1,"byteOffset":112800,"componentType":5126,"count":1664,"max":[0.9989485144615173,1.0000001192092896],"min":[0,-1.1920928955078125e-7],"type":"VEC2"},{"bufferView":1,"byteOffset":126112,"componentType":5126,"count":1664,"max":[0,1],"min":[0,1],"type":"VEC2"},{"bufferView":0,"byteOffset":109728,"componentType":5125,"count":3060,"max":[1663],"min":[0],"type":"SCALAR"},{"bufferView":4,"componentType":5126,"count":301,"max":[10],"min":[0],"type":"SCALAR"},{"bufferView":5,"componentType":5126,"count":301,"max":[-0.0002718487230595201,31.305116653442383,-0.7497262954711914],"min":[-0.0002956905809696764,31.304994583129883,-0.7499992847442627],"type":"VEC3"},{"bufferView":4,"byteOffset":1204,"componentType":5126,"count":278,"max":[10],"min":[0],"type":"SCALAR"},{"bufferView":5,"byteOffset":3612,"componentType":5126,"count":278,"max":[1.0000097751617432,1.2116864919662476,1.0000181198120117],"min":[1.0000072717666626,1.211683988571167,1.0000168085098267],"type":"VEC3"},{"bufferView":4,"byteOffset":2316,"componentType":5126,"count":301,"max":[10],"min":[0],"type":"SCALAR"},{"bufferView":6,"componentType":5126,"count":301,"max":[-0.7002252340316772,0.08617475628852844,0.08617475628852844,0.7071067690849304],"min":[-0.7071067690849304,-0.09841037541627884,-0.09841037541627884,0.7002252340316772],"type":"VEC4"},{"bufferView":4,"byteOffset":3520,"componentType":5126,"count":301,"max":[10],"min":[0],"type":"SCALAR"},{"bufferView":5,"byteOffset":6948,"componentType":5126,"count":301,"max":[0,74.23361206054688,0],"min":[0,0,0],"type":"VEC3"},{"bufferView":4,"byteOffset":4724,"componentType":5126,"count":109,"max":[10],"min":[0],"type":"SCALAR"},{"bufferView":5,"byteOffset":10560,"componentType":5126,"count":109,"max":[1.0000001192092896,1.0000001192092896,1.0000001192092896],"min":[0.9999999403953552,0.9999999403953552,0.9999999403953552],"type":"VEC3"},{"bufferView":4,"byteOffset":5160,"componentType":5126,"count":284,"max":[10],"min":[0],"type":"SCALAR"},{"bufferView":5,"byteOffset":11868,"componentType":5126,"count":284,"max":[0,-162.42515563964844,-0.000001976380644919118],"min":[0,-162.42518615722656,-0.000001976381099666469],"type":"VEC3"},{"bufferView":4,"byteOffset":6296,"componentType":5126,"count":211,"max":[10],"min":[0],"type":"SCALAR"},{"bufferView":5,"byteOffset":15276,"componentType":5126,"count":211,"max":[1.0000001192092896,1,1.0000001192092896],"min":[0.9999998807907104,0.9999997615814209,0.9999998807907104],"type":"VEC3"},{"bufferView":4,"byteOffset":7140,"componentType":5126,"count":301,"max":[10],"min":[0],"type":"SCALAR"},{"bufferView":6,"byteOffset":4816,"componentType":5126,"count":301,"max":[0.4947243928909302,0.7071067690849304,0.7070679068565369,0.7071067690849304],"min":[-0.7071067690849304,-0.7070679068565369,-0.7071067690849304,-0.4947243928909302],"type":"VEC4"}],"animations":[{"channels":[{"sampler":0,"target":{"node":9,"path":"translation"}},{"sampler":1,"target":{"node":9,"path":"scale"}},{"sampler":2,"target":{"node":9,"path":"rotation"}},{"sampler":3,"target":{"node":5,"path":"translation"}},{"sampler":4,"target":{"node":5,"path":"scale"}},{"sampler":5,"target":{"node":13,"path":"translation"}},{"sampler":6,"target":{"node":13,"path":"scale"}},{"sampler":7,"target":{"node":13,"path":"rotation"}}],"name":"Take","samplers":[{"input":30,"interpolation":"LINEAR","output":31},{"input":32,"interpolation":"LINEAR","output":33},{"input":34,"interpolation":"LINEAR","output":35},{"input":36,"interpolation":"LINEAR","output":37},{"input":38,"interpolation":"LINEAR","output":39},{"input":40,"interpolation":"LINEAR","output":41},{"input":42,"interpolation":"LINEAR","output":43},{"input":44,"interpolation":"LINEAR","output":45}]}],"asset":{"extras":{"author":"NickConnolly (https://sketchfab.com/NickConnolly)","license":"CC-BY-4.0 (http://creativecommons.org/licenses/by/4.0/)","source":"https://sketchfab.com/3d-models/piston-38478650b4394777933086ce552713a5","title":"Piston"},"generator":"Sketchfab-6.36.0","version":"2.0"},"bufferViews":[{"buffer":0,"byteLength":121968,"byteOffset":0,"name":"floatBufferViews","target":34963},{"buffer":0,"byteLength":139424,"byteOffset":121968,"byteStride":8,"name":"floatBufferViews","target":34962},{"buffer":0,"byteLength":209136,"byteOffset":261392,"byteStride":12,"name":"floatBufferViews","target":34962},{"buffer":0,"byteLength":139424,"byteOffset":470528,"byteStride":16,"name":"floatBufferViews","target":34962},{"buffer":0,"byteLength":8344,"byteOffset":609952,"name":"floatBufferViews"},{"buffer":0,"byteLength":17808,"byteOffset":618296,"byteStride":12,"name":"floatBufferViews"},{"buffer":0,"byteLength":9632,"byteOffset":636104,"byteStride":16,"name":"floatBufferViews"}],"buffers":[{"byteLength":645736,"uri":"data:application/octet-stream;base64,"}],"materials":[{"doubleSided":true,"name":"Scene_-_Root","pbrMetallicRoughness":{"baseColorFactor":[0.4788319434779161,0.34704180124043094,0.21500284724191124,1],"metallicFactor":0.9703354745540979,"roughnessFactor":0.22819710977422367}}],"meshes":[{"name":"Cylinder__0","primitives":[{"attributes":{"NORMAL":1,"POSITION":0,"TANGENT":2,"TEXCOORD_0":3,"TEXCOORD_1":4},"indices":5,"material":0,"mode":4}]},{"name":"Cylinder.1__0","primitives":[{"attributes":{"NORMAL":7,"POSITION":6,"TANGENT":8,"TEXCOORD_0":9,"TEXCOORD_1":10},"indices":11,"material":0,"mode":4}]},{"name":"Box__0","primitives":[{"attributes":{"NORMAL":13,"POSITION":12,"TANGENT":14,"TEXCOORD_0":15,"TEXCOORD_1":16},"indices":17,"material":0,"mode":4}]},{"name":"Cylinder.3__0","primitives":[{"attributes":{"NORMAL":19,"POSITION":18,"TANGENT":20,"TEXCOORD_0":21,"TEXCOORD_1":22},"indices":23,"material":0,"mode":4}]},{"name":"Cylinder.2__0","primitives":[{"attributes":{"NORMAL":25,"POSITION":24,"TANGENT":26,"TEXCOORD_0":27,"TEXCOORD_1":28},"indices":29,"material":0,"mode":4}]}],"nodes":[{"children":[1],"name":"RootNode (gltf orientation matrix)","rotation":[-0.7071067811865475,0,0,0.7071067811865476]},{"children":[2],"name":"RootNode (model correction matrix)"},{"children":[3],"matrix":[1,0,0,0,0,0,1,0,0,-1,0,0,0,0,0,1],"name":"7dfad469b6b64a4e9edf3c8063d77c8c.fbx"},{"children":[4],"name":""},{"children":[5,13],"name":"RootNode"},{"children":[6,7],"name":"Cylinder"},{"mesh":0,"name":"Cylinder__0"},{"children":[8,9],"name":"Cylinder.1","rotation":[0.7071005702018738,0.0029669341165572405,0.0029669341165572405,0.7071005702018738],"scale":[1.0000019073486328,1.0000009536743164,1.0000004768371582],"translation":[-0.000013571579074778128,-73.8894271850586,-0.000015405959857162088]},{"mesh":1,"name":"Cylinder.1__0"},{"children":[10,11],"name":"Box","rotation":[-0.7071068286895752,-6.133114108162173e-19,-6.133114108162173e-19,0.7071068286895752],"scale":[1.0000097751617432,1.2116864919662476,1.000017762184143],"translation":[-0.00027778279036283493,31.30511474609375,-0.7497310638427734]},{"mesh":2,"name":"Box__0"},{"children":[12],"name":"Cylinder.3","rotation":[0.013844549655914307,0.7069712281227112,0.7069712281227112,0.013844172470271587],"scale":[0.9991036653518677,1.2116403579711914,0.6818428039550781],"translation":[-0.3801301121711731,-104.05850982666016,-31.304576873779297]},{"mesh":3,"name":"Cylinder.3__0"},{"children":[14],"name":"Cylinder.2","rotation":[-0.7071068286895752,8.659561926915534e-17,-8.659561926915534e-17,0.7071068286895752],"scale":[1,0.9999998807907104,1],"translation":[0,-162.4251708984375,-0.0000019763808722927934]},{"mesh":4,"name":"Cylinder.2__0"}],"scene":0,"scenes":[{"name":"OSG_Scene","nodes":[0]}]}